<svg xmlns="http://www.w3.org/2000/svg" width="15" height="24" viewBox="0 0 15 24">
  <metadata><?xpacket begin="﻿" id="W5M0MpCehiHzreSzNTczkc9d"?>
<x:xmpmeta xmlns:x="adobe:ns:meta/" x:xmptk="Adobe XMP Core 5.6-c142 79.160924, 2017/07/13-01:06:39        ">
   <rdf:RDF xmlns:rdf="http://www.w3.org/1999/02/22-rdf-syntax-ns#">
      <rdf:Description rdf:about=""/>
   </rdf:RDF>
</x:xmpmeta>
                                                                                                    
                                                                                                    
                                                                                                    
                                                                                                    
                                                                                                    
                                                                                                    
                                                                                                    
                                                                                                    
                                                                                                    
                                                                                                    
                                                                                                    
                                                                                                    
                                                                                                    
                                                                                                    
                                                                                                    
                                                                                                    
                                                                                                    
                                                                                                    
                                                                                                    
                                                                                                    
                           
<?xpacket end="w"?></metadata>
<defs>
    <style>
      .cls-1 {
        fill: #303030;
        fill-rule: evenodd;
      }
    </style>
  </defs>
  <path class="cls-1" d="M62,365.99h4v-3a2.165,2.165,0,0,1,1.071-2.2c1.036-.693,3.928-2.1,3.928-5.8a7.191,7.191,0,0,0-5.591-6.782,7.334,7.334,0,0,0-7.282,2.01C56.37,352.188,56,353.56,56,356.99h4l-0.062-.615c0-1.828.207-3.757,2.765-4.285a3.854,3.854,0,0,1,3.482.935,2.664,2.664,0,0,1-.52,3.877l-2.22,1.542C62.15,359.292,62,360.6,62,361.99v4Zm0,6v-4h4v4H62Zm1.678-2.071" transform="translate(-56 -348)"/>
</svg>
